<mxfile host="Electron" modified="2024-02-18T08:36:55.180Z" agent="Mozilla/5.0 (Macintosh; Intel Mac OS X 10_15_7) AppleWebKit/537.36 (KHTML, like Gecko) draw.io/23.0.2 Chrome/120.0.6099.109 Electron/28.1.0 Safari/537.36" etag="LoMQKTsb-EbLBj67nrG9" version="23.0.2" type="device">
  <diagram name="Page-1" id="EX25WdHFCQZXPCbGdMx1">
    <mxGraphModel dx="591" dy="378" grid="1" gridSize="10" guides="1" tooltips="1" connect="1" arrows="1" fold="1" page="1" pageScale="1" pageWidth="827" pageHeight="1169" math="0" shadow="0">
      <root>
        <mxCell id="0" />
        <mxCell id="1" parent="0" />
        <mxCell id="q2I5GyUYsbZKYkaI9Mjk-2" value="Сервис авторизации" style="rounded=1;whiteSpace=wrap;html=1;" vertex="1" parent="1">
          <mxGeometry x="354" y="310" width="120" height="60" as="geometry" />
        </mxCell>
        <mxCell id="q2I5GyUYsbZKYkaI9Mjk-26" style="edgeStyle=orthogonalEdgeStyle;rounded=0;orthogonalLoop=1;jettySize=auto;html=1;exitX=1;exitY=0.5;exitDx=0;exitDy=0;entryX=0;entryY=0.5;entryDx=0;entryDy=0;" edge="1" parent="1" source="q2I5GyUYsbZKYkaI9Mjk-3" target="q2I5GyUYsbZKYkaI9Mjk-2">
          <mxGeometry relative="1" as="geometry" />
        </mxCell>
        <mxCell id="q2I5GyUYsbZKYkaI9Mjk-3" value="Задачи" style="rounded=1;whiteSpace=wrap;html=1;" vertex="1" parent="1">
          <mxGeometry x="160" y="310" width="120" height="60" as="geometry" />
        </mxCell>
        <mxCell id="q2I5GyUYsbZKYkaI9Mjk-29" style="edgeStyle=orthogonalEdgeStyle;rounded=0;orthogonalLoop=1;jettySize=auto;html=1;exitX=0;exitY=0.5;exitDx=0;exitDy=0;entryX=1;entryY=0.5;entryDx=0;entryDy=0;" edge="1" parent="1" source="q2I5GyUYsbZKYkaI9Mjk-4" target="q2I5GyUYsbZKYkaI9Mjk-2">
          <mxGeometry relative="1" as="geometry" />
        </mxCell>
        <mxCell id="q2I5GyUYsbZKYkaI9Mjk-4" value="Аккаунтинг" style="rounded=1;whiteSpace=wrap;html=1;" vertex="1" parent="1">
          <mxGeometry x="550" y="310" width="120" height="60" as="geometry" />
        </mxCell>
        <mxCell id="q2I5GyUYsbZKYkaI9Mjk-7" value="БД" style="shape=cylinder3;whiteSpace=wrap;html=1;boundedLbl=1;backgroundOutline=1;size=15;" vertex="1" parent="1">
          <mxGeometry x="360" y="410" width="46" height="70" as="geometry" />
        </mxCell>
        <mxCell id="q2I5GyUYsbZKYkaI9Mjk-8" style="edgeStyle=orthogonalEdgeStyle;rounded=0;orthogonalLoop=1;jettySize=auto;html=1;exitX=0.25;exitY=1;exitDx=0;exitDy=0;entryX=0.5;entryY=0;entryDx=0;entryDy=0;entryPerimeter=0;" edge="1" parent="1" source="q2I5GyUYsbZKYkaI9Mjk-2" target="q2I5GyUYsbZKYkaI9Mjk-7">
          <mxGeometry relative="1" as="geometry" />
        </mxCell>
        <mxCell id="q2I5GyUYsbZKYkaI9Mjk-25" style="edgeStyle=orthogonalEdgeStyle;rounded=0;orthogonalLoop=1;jettySize=auto;html=1;exitX=1;exitY=1;exitDx=0;exitDy=0;entryX=0.25;entryY=0;entryDx=0;entryDy=0;" edge="1" parent="1" source="q2I5GyUYsbZKYkaI9Mjk-13" target="q2I5GyUYsbZKYkaI9Mjk-2">
          <mxGeometry relative="1" as="geometry" />
        </mxCell>
        <mxCell id="q2I5GyUYsbZKYkaI9Mjk-27" style="edgeStyle=orthogonalEdgeStyle;rounded=0;orthogonalLoop=1;jettySize=auto;html=1;exitX=0.5;exitY=1;exitDx=0;exitDy=0;entryX=0.5;entryY=0;entryDx=0;entryDy=0;" edge="1" parent="1" source="q2I5GyUYsbZKYkaI9Mjk-13" target="q2I5GyUYsbZKYkaI9Mjk-3">
          <mxGeometry relative="1" as="geometry" />
        </mxCell>
        <mxCell id="q2I5GyUYsbZKYkaI9Mjk-13" value="Дашборд задач" style="ellipse;whiteSpace=wrap;html=1;" vertex="1" parent="1">
          <mxGeometry x="160" y="80" width="120" height="80" as="geometry" />
        </mxCell>
        <mxCell id="q2I5GyUYsbZKYkaI9Mjk-28" style="edgeStyle=orthogonalEdgeStyle;rounded=0;orthogonalLoop=1;jettySize=auto;html=1;exitX=0.5;exitY=1;exitDx=0;exitDy=0;entryX=0.5;entryY=0;entryDx=0;entryDy=0;" edge="1" parent="1" source="q2I5GyUYsbZKYkaI9Mjk-14" target="q2I5GyUYsbZKYkaI9Mjk-4">
          <mxGeometry relative="1" as="geometry" />
        </mxCell>
        <mxCell id="q2I5GyUYsbZKYkaI9Mjk-30" style="edgeStyle=orthogonalEdgeStyle;rounded=0;orthogonalLoop=1;jettySize=auto;html=1;exitX=0;exitY=1;exitDx=0;exitDy=0;entryX=0.5;entryY=0;entryDx=0;entryDy=0;" edge="1" parent="1" source="q2I5GyUYsbZKYkaI9Mjk-14" target="q2I5GyUYsbZKYkaI9Mjk-2">
          <mxGeometry relative="1" as="geometry" />
        </mxCell>
        <mxCell id="q2I5GyUYsbZKYkaI9Mjk-14" value="Дашборд аккаунтинга" style="ellipse;whiteSpace=wrap;html=1;" vertex="1" parent="1">
          <mxGeometry x="550" y="80" width="120" height="80" as="geometry" />
        </mxCell>
        <mxCell id="q2I5GyUYsbZKYkaI9Mjk-31" value="Брокер" style="shape=cylinder3;whiteSpace=wrap;html=1;boundedLbl=1;backgroundOutline=1;size=15;rotation=90;horizontal=0;" vertex="1" parent="1">
          <mxGeometry x="385.53" y="341.51" width="60" height="517" as="geometry" />
        </mxCell>
        <mxCell id="q2I5GyUYsbZKYkaI9Mjk-33" style="edgeStyle=orthogonalEdgeStyle;rounded=0;orthogonalLoop=1;jettySize=auto;html=1;exitX=0;exitY=1;exitDx=0;exitDy=0;entryX=0.75;entryY=0;entryDx=0;entryDy=0;" edge="1" parent="1" source="q2I5GyUYsbZKYkaI9Mjk-32" target="q2I5GyUYsbZKYkaI9Mjk-4">
          <mxGeometry relative="1" as="geometry" />
        </mxCell>
        <mxCell id="q2I5GyUYsbZKYkaI9Mjk-32" value="Дашборд аналитики" style="ellipse;whiteSpace=wrap;html=1;" vertex="1" parent="1">
          <mxGeometry x="622" y="160" width="120" height="80" as="geometry" />
        </mxCell>
        <mxCell id="q2I5GyUYsbZKYkaI9Mjk-48" style="edgeStyle=orthogonalEdgeStyle;rounded=0;orthogonalLoop=1;jettySize=auto;html=1;exitX=0.75;exitY=1;exitDx=0;exitDy=0;" edge="1" parent="1" source="q2I5GyUYsbZKYkaI9Mjk-3">
          <mxGeometry relative="1" as="geometry">
            <mxPoint x="250" y="570" as="targetPoint" />
          </mxGeometry>
        </mxCell>
        <mxCell id="q2I5GyUYsbZKYkaI9Mjk-50" value="создание,&lt;br&gt;назначение,&lt;br&gt;выполнение" style="edgeLabel;html=1;align=center;verticalAlign=middle;resizable=0;points=[];" vertex="1" connectable="0" parent="q2I5GyUYsbZKYkaI9Mjk-48">
          <mxGeometry x="0.0231" relative="1" as="geometry">
            <mxPoint as="offset" />
          </mxGeometry>
        </mxCell>
        <mxCell id="q2I5GyUYsbZKYkaI9Mjk-51" value="БД" style="shape=cylinder3;whiteSpace=wrap;html=1;boundedLbl=1;backgroundOutline=1;size=15;" vertex="1" parent="1">
          <mxGeometry x="167" y="410" width="46" height="70" as="geometry" />
        </mxCell>
        <mxCell id="q2I5GyUYsbZKYkaI9Mjk-52" style="edgeStyle=orthogonalEdgeStyle;rounded=0;orthogonalLoop=1;jettySize=auto;html=1;exitX=0.25;exitY=1;exitDx=0;exitDy=0;entryX=0.5;entryY=0;entryDx=0;entryDy=0;entryPerimeter=0;" edge="1" parent="1" source="q2I5GyUYsbZKYkaI9Mjk-3" target="q2I5GyUYsbZKYkaI9Mjk-51">
          <mxGeometry relative="1" as="geometry" />
        </mxCell>
        <mxCell id="q2I5GyUYsbZKYkaI9Mjk-53" value="БД" style="shape=cylinder3;whiteSpace=wrap;html=1;boundedLbl=1;backgroundOutline=1;size=15;" vertex="1" parent="1">
          <mxGeometry x="557" y="410" width="46" height="70" as="geometry" />
        </mxCell>
        <mxCell id="q2I5GyUYsbZKYkaI9Mjk-54" style="edgeStyle=orthogonalEdgeStyle;rounded=0;orthogonalLoop=1;jettySize=auto;html=1;exitX=0.25;exitY=1;exitDx=0;exitDy=0;entryX=0.5;entryY=0;entryDx=0;entryDy=0;entryPerimeter=0;" edge="1" parent="1" source="q2I5GyUYsbZKYkaI9Mjk-4" target="q2I5GyUYsbZKYkaI9Mjk-53">
          <mxGeometry relative="1" as="geometry" />
        </mxCell>
        <mxCell id="q2I5GyUYsbZKYkaI9Mjk-58" style="edgeStyle=orthogonalEdgeStyle;rounded=0;orthogonalLoop=1;jettySize=auto;html=1;exitX=0.75;exitY=1;exitDx=0;exitDy=0;entryX=0;entryY=0.066;entryDx=0;entryDy=0;entryPerimeter=0;" edge="1" parent="1" source="q2I5GyUYsbZKYkaI9Mjk-4" target="q2I5GyUYsbZKYkaI9Mjk-31">
          <mxGeometry relative="1" as="geometry" />
        </mxCell>
        <mxCell id="q2I5GyUYsbZKYkaI9Mjk-59" style="edgeStyle=orthogonalEdgeStyle;rounded=0;orthogonalLoop=1;jettySize=auto;html=1;exitX=0.75;exitY=1;exitDx=0;exitDy=0;entryX=0;entryY=0.444;entryDx=0;entryDy=0;entryPerimeter=0;" edge="1" parent="1" source="q2I5GyUYsbZKYkaI9Mjk-2" target="q2I5GyUYsbZKYkaI9Mjk-31">
          <mxGeometry relative="1" as="geometry" />
        </mxCell>
        <mxCell id="q2I5GyUYsbZKYkaI9Mjk-60" value="регистрация" style="edgeLabel;html=1;align=center;verticalAlign=middle;resizable=0;points=[];" vertex="1" connectable="0" parent="q2I5GyUYsbZKYkaI9Mjk-59">
          <mxGeometry x="-0.232" relative="1" as="geometry">
            <mxPoint as="offset" />
          </mxGeometry>
        </mxCell>
      </root>
    </mxGraphModel>
  </diagram>
</mxfile>
